<?xml version="1.0" encoding="UTF-8" standalone="no"?>
<svg
   xmlns:dc="http://purl.org/dc/elements/1.1/"
   xmlns:cc="http://creativecommons.org/ns#"
   xmlns:rdf="http://www.w3.org/1999/02/22-rdf-syntax-ns#"
   xmlns:svg="http://www.w3.org/2000/svg"
   xmlns="http://www.w3.org/2000/svg"
   xmlns:sodipodi="http://sodipodi.sourceforge.net/DTD/sodipodi-0.dtd"
   xmlns:inkscape="http://www.inkscape.org/namespaces/inkscape"
   version="1.1"
   x="0px"
   y="0px"
   viewBox="0 0 100 100"
   enable-background="new 0 0 100 100"
   xml:space="preserve"
   id="svg2"
   inkscape:version="0.48.4 r9939"
   width="100%"
   height="100%"
   sodipodi:docname="flag-english.svg"><metadata
     id="metadata38"><rdf:RDF><cc:Work
         rdf:about=""><dc:format>image/svg+xml</dc:format><dc:type
           rdf:resource="http://purl.org/dc/dcmitype/StillImage" /></cc:Work></rdf:RDF></metadata><defs
     id="defs36" /><sodipodi:namedview
     pagecolor="#ffffff"
     bordercolor="#666666"
     borderopacity="1"
     objecttolerance="10"
     gridtolerance="10"
     guidetolerance="10"
     inkscape:pageopacity="0"
     inkscape:pageshadow="2"
     inkscape:window-width="640"
     inkscape:window-height="480"
     id="namedview34"
     showgrid="false"
     inkscape:zoom="1.888"
     inkscape:cx="50"
     inkscape:cy="62.5"
     inkscape:window-x="0"
     inkscape:window-y="25"
     inkscape:window-maximized="0"
     inkscape:current-layer="svg2" /><g
     id="g4"
     transform="translate(0,-1.1652542)"><g
       id="g6"><g
         id="g8"><polygon
           points="98.44,32.77 98.44,26.56 96.88,26.56 68.75,40.62 61.76,40.62 89.89,26.56 89.89,25 100,25 100,40.62 98.44,40.62 82.73,40.62 "
           id="polygon10" /><polygon
           points="82.73,59.38 98.44,59.38 98.44,56.25 100,56.25 100,70.72 98.44,70.72 98.44,67.23 "
           id="polygon12" /><polygon
           points="68.75,59.38 75.74,59.38 98.44,70.72 100,70.72 100,75 96.88,75 96.88,73.44 "
           id="polygon14" /><polygon
           points="56.25,73.44 59.38,73.44 59.38,61.67 82.9,73.44 96.88,73.44 96.88,75 56.25,75 "
           id="polygon16" /><polygon
           points="3.12,73.44 31.25,59.38 38.24,59.38 10.11,73.44 17.1,73.44 17.1,75 3.12,75 "
           id="polygon18" /><polygon
           points="40.62,61.67 40.62,73.44 40.62,75 17.1,75 17.1,73.44 "
           id="polygon20" /><polygon
           points="1.56,32.77 17.27,40.62 1.56,40.62 1.56,43.75 0,43.75 0,25 17.1,25 17.1,26.56 3.12,26.56 31.25,40.62 24.26,40.62 1.56,29.28 "
           id="polygon22" /><polygon
           points="43.75,25 43.75,26.56 40.62,26.56 40.62,38.32 17.1,26.56 17.1,25 "
           id="polygon24" /><polygon
           points="100,40.62 100,56.25 98.44,56.25 56.25,56.25 56.25,73.44 56.25,75 40.62,75 40.62,73.44 43.75,73.44 43.75,56.25 1.56,56.25 1.56,59.38 17.27,59.38 1.56,67.23 1.56,73.44 3.12,73.44 3.12,75 0,75 0,43.75 1.56,43.75 43.75,43.75 43.75,26.56 43.75,25 59.38,25 59.38,26.56 56.25,26.56 56.25,43.75 98.44,43.75 98.44,40.62 "
           id="polygon26" /><polygon
           points="59.38,38.32 59.38,26.56 59.38,25 89.89,25 89.89,26.56 82.9,26.56 "
           id="polygon28" /></g></g></g></svg>